<svg width="24" height="24" viewBox="0 0 24 24" fill="none" xmlns="http://www.w3.org/2000/svg">
<path fill-rule="evenodd" clip-rule="evenodd" d="M4 3H9C9.55228 3 10 3.44772 10 4V7C10 7.55228 9.55228 8 9 8H4C3.44772 8 3 7.55228 3 7V4C3 3.44772 3.44772 3 4 3ZM2 4C2 2.89543 2.89543 2 4 2H9C10.1046 2 11 2.89543 11 4V7C11 8.10457 10.1046 9 9 9H4C2.89543 9 2 8.10457 2 7V4ZM15 17H20C20.5523 17 21 17.4477 21 18V20C21 20.5523 20.5523 21 20 21H15C14.4477 21 14 20.5523 14 20V18C14 17.4477 14.4477 17 15 17ZM13 18C13 16.8954 13.8954 16 15 16H20C21.1046 16 22 16.8954 22 18V20C22 21.1046 21.1046 22 20 22H15C13.8954 22 13 21.1046 13 20V18ZM20 3H15C14.4477 3 14 3.44772 14 4V12C14 12.5523 14.4477 13 15 13H20C20.5523 13 21 12.5523 21 12V4C21 3.44772 20.5523 3 20 3ZM15 2C13.8954 2 13 2.89543 13 4V12C13 13.1046 13.8954 14 15 14H20C21.1046 14 22 13.1046 22 12V4C22 2.89543 21.1046 2 20 2H15ZM4 12H9C9.55228 12 10 12.4477 10 13V20C10 20.5523 9.55228 21 9 21H4C3.44772 21 3 20.5523 3 20V13C3 12.4477 3.44772 12 4 12ZM2 13C2 11.8954 2.89543 11 4 11H9C10.1046 11 11 11.8954 11 13V20C11 21.1046 10.1046 22 9 22H4C2.89543 22 2 21.1046 2 20V13Z" fill="#353535"/>
</svg>
