<svg width="19" height="20" viewBox="0 0 19 20" fill="none" xmlns="http://www.w3.org/2000/svg">
<path d="M1 0C0.447716 -2.41393e-08 8.10943e-07 0.447717 7.86802e-07 1L0 19C-2.41411e-08 19.5523 0.447716 20 1 20H6V19H1V1L13 1V6H14V1C14 0.447715 13.5523 5.48679e-07 13 5.24538e-07L1 0Z" fill="#353535"/>
<path d="M7.58845 11.4137L9.95522 6.20677L9.04485 5.79297L6.67808 10.9999H5.78313L4.42878 8.74262L3.57129 9.25712L4.92564 11.5144C5.10636 11.8156 5.43187 11.9999 5.78313 11.9999H6.67808C7.07022 11.9999 7.42618 11.7707 7.58845 11.4137Z" fill="#353535"/>
<path fill-rule="evenodd" clip-rule="evenodd" d="M18 18H19V16.2071C19 15.9419 18.8946 15.6875 18.7071 15.5L18 14.7929C17.8125 14.6054 17.5581 14.5 17.2929 14.5H15V11.618L15.3944 10.8292C15.4639 10.6903 15.5 10.5372 15.5 10.382V10C15.5 8.89543 14.6046 8 13.5 8C12.3954 8 11.5 8.89543 11.5 10V10.382C11.5 10.5372 11.5361 10.6903 11.6056 10.8292L12 11.618V14.5L9.70711 14.5C9.44189 14.5 9.18754 14.6054 9 14.7929L8.29289 15.5C8.10536 15.6875 8 15.9419 8 16.2071V18H9V19C9 19.5523 9.44772 20 10 20H17C17.5523 20 18 19.5523 18 19L18 18ZM10 18H17L17 19H10V18ZM12.5 10C12.5 9.44772 12.9477 9 13.5 9C14.0523 9 14.5 9.44772 14.5 10V10.382L14.1056 11.1708C14.0361 11.3097 14 11.4628 14 11.618V15.5H17.2929L18 16.2071V17H9V16.2071L9.70711 15.5L13 15.5V11.618C13 11.4628 12.9639 11.3097 12.8944 11.1708L12.5 10.382V10Z" fill="#353535"/>
</svg>
