<svg width="160" height="36" viewBox="0 0 160 36" fill="none" xmlns="http://www.w3.org/2000/svg">
    <path fill-rule="evenodd" clip-rule="evenodd"
        d="M48.8203 25.492V9.96387H52.9838L58.2593 21.5678L63.4564 9.96387H67.445V25.492H64.0118V16.4585L60.0506 25.492H56.3909L52.3788 16.5077V25.492H48.8203Z"
        fill="#0A0B09" />
    <path fill-rule="evenodd" clip-rule="evenodd"
        d="M81.2613 19.4797L78.3886 12.8976L75.5819 19.4797H81.2613ZM73.0141 25.492H68.9766L75.9168 9.96387H80.8875L87.8773 25.492H83.892L82.5163 22.3988H74.3473L73.0141 25.492Z"
        fill="#0A0B09" />
    <path fill-rule="evenodd" clip-rule="evenodd"
        d="M89.4863 25.492V9.96387H104.425V13.0687H93.0945V16.1528H102.809V19.1832H93.0945V22.3858H104.453V25.492H89.4863Z"
        fill="#0A0B09" />
    <path fill-rule="evenodd" clip-rule="evenodd"
        d="M111.018 17.0942H118.868V13.069H111.018V17.0942ZM107.359 25.492V9.96387H119.86C121.53 9.96387 122.5 10.923 122.5 12.5681V17.7849C122.5 18.985 121.429 20.0698 119.353 20.0698C119.236 20.0757 119.116 20.0698 118.992 20.0698L122.631 25.492H118.615L115.165 20.1825H111.018V25.492H107.359Z"
        fill="#0A0B09" />
    <path fill-rule="evenodd" clip-rule="evenodd"
        d="M129.082 25.5011H127.844C126.227 25.5011 125.448 24.5737 125.448 23.2233V21.1949H129.082V22.3962H136.804V19.2176C136.804 19.2176 129.36 19.2176 127.947 19.2176C126.533 19.2176 125.514 18.2739 125.514 16.9644V12.3544C125.514 10.9594 126.623 9.97363 127.972 9.97363C129.32 9.97363 138.097 9.97363 138.097 9.97363C139.466 9.97363 140.413 10.9872 140.413 12.4528C140.413 13.9165 140.413 14.3058 140.413 14.3058H136.804V13.0785H129.082V16.1367H137.915C139.218 16.1367 140.413 16.9929 140.413 18.6412V23.073C140.413 24.5827 139.569 25.5011 137.991 25.5011C136.413 25.5011 129.082 25.5011 129.082 25.5011Z"
        fill="#0A0B09" />
    <path fill-rule="evenodd" clip-rule="evenodd"
        d="M143.9 25.5011V9.97168H147.61V16.1827L154.675 9.97168H159.697L151.269 17.1852L160.001 25.5011H154.801L147.61 18.4378V25.5011H143.9Z"
        fill="#0A0B09" />
    <path
        d="M4.04372 0H29.5842C31.8211 0 33.6344 1.80332 33.6344 4.02783V31.2692C33.6344 33.4937 31.8211 35.297 29.5842 35.297H4.04372C1.81044 35.297 2.10691e-05 33.4966 2.10691e-05 31.2757V4.03432C-0.00344576 2.96554 0.421054 1.93936 1.17977 1.18241C1.93849 0.425451 2.969 -5.56078e-06 4.04372 0Z"
        fill="#42B0D5" />
    <path
        d="M22.1757 16.658L28.8152 8.41271L28.7956 8.38688L19.2016 12.9583L16.8341 2.68555H16.795L14.4274 12.9583L4.83345 8.38688L4.81388 8.41271L11.4534 16.658L1.85938 21.2294L1.87242 21.2617H12.5165L10.1489 31.5409L10.175 31.5538L16.8145 23.3085L23.454 31.5538L23.4866 31.5344L21.1126 21.2617H31.7631L31.7697 21.2294L22.1757 16.658Z"
        fill="white" />
</svg>